<svg xmlns="http://www.w3.org/2000/svg" viewBox="0 0 1920.1 1082.1"><defs><style>.cls-1{fill:none;stroke:#007ea7;stroke-miterlimit:10;stroke-width:0.3px;}</style></defs><g id="Layer_2" data-name="Layer 2"><g id="Layer_1-2" data-name="Layer 1"><polygon class="cls-1" points="1920.05 985.93 1823.93 1082.05 1920.05 1082.05 1920.05 985.93"/><polygon class="cls-1" points="1521.6 826.11 1613.55 734.16 1920.05 427.66 1920.05 243.76 1524.88 638.93 1429.65 546.98 1892.68 83.94 1920.05 110.36 1920.05 0.05 1792.68 0.05 1337.7 455.03 1245.75 546.98 1337.7 638.93 1429.65 730.88 1337.7 822.83 1058.57 546.98 1150.52 455.03 1242.47 363.08 1334.42 271.13 1426.37 179.18 1518.32 87.23 1605.49 0.05 1418.31 0.05 1337.7 80.66 1257.09 0.05 1069.91 0.05 1242.47 172.61 1150.52 264.56 886.01 0.05 702.11 0.05 1058.57 356.51 966.62 455.03 687.48 175.89 595.53 83.94 511.64 0.05 327.74 0.05 503.58 175.89 408.35 267.84 316.4 359.79 0.05 678.39 0.05 863.33 408.35 455.03 500.3 546.98 37.27 1010.01 0.05 972.79 0.05 1082.05 152.41 1082.05 592.25 642.21 684.2 550.26 592.25 458.31 500.3 366.36 592.25 274.41 871.38 553.54 779.43 645.49 687.48 737.44 595.53 829.39 503.58 921.34 408.35 1010.01 338.79 1082.05 526.78 1082.05 595.53 1013.29 664.29 1082.05 851.48 1082.05 687.48 918.06 779.43 826.11 1035.38 1082.05 1219.28 1082.05 871.38 734.16 963.33 642.21 1245.75 918.06 1337.7 1010.01 1409.74 1082.05 1593.64 1082.05 1429.65 918.06 1521.6 826.11"/><polygon class="cls-1" points="0.05 495.53 319.69 175.89 227.74 83.94 0.05 311.63 0.05 495.53"/><polygon class="cls-1" points="1610.27 921.34 1702.22 1013.29 1920.05 795.46 1920.05 611.56 1610.27 921.34"/><polygon class="cls-1" points="0.05 121.16 121.16 0.05 0.05 0.05 0.05 121.16"/></g></g></svg>